<mxfile host="app.diagrams.net" modified="2023-11-11T22:12:44.257Z" agent="Mozilla/5.0 (Windows NT 10.0; Win64; x64) AppleWebKit/537.36 (KHTML, like Gecko) Chrome/119.0.0.0 Safari/537.36" etag="oq4_VLor8uIv6Bku6_A1" version="22.1.0" type="device">
  <diagram name="PÃ¡gina-1" id="VQq9vi49HUWAJtyH1i-y">
    <mxGraphModel dx="1133" dy="941" grid="1" gridSize="10" guides="1" tooltips="1" connect="1" arrows="1" fold="1" page="1" pageScale="1" pageWidth="827" pageHeight="1169" math="0" shadow="0">
      <root>
        <mxCell id="0" />
        <mxCell id="1" parent="0" />
        <mxCell id="kEy6Bz916FMSJvCaJo0o-5" value="" style="edgeStyle=orthogonalEdgeStyle;rounded=0;orthogonalLoop=1;jettySize=auto;html=1;" edge="1" parent="1" source="kEy6Bz916FMSJvCaJo0o-1" target="kEy6Bz916FMSJvCaJo0o-4">
          <mxGeometry relative="1" as="geometry" />
        </mxCell>
        <mxCell id="kEy6Bz916FMSJvCaJo0o-1" value="INICIO" style="ellipse;whiteSpace=wrap;html=1;fillColor=#dae8fc;strokeColor=#004C99;gradientColor=#89f0f0;" vertex="1" parent="1">
          <mxGeometry x="90" y="70" width="120" height="80" as="geometry" />
        </mxCell>
        <mxCell id="kEy6Bz916FMSJvCaJo0o-7" value="" style="edgeStyle=orthogonalEdgeStyle;rounded=0;orthogonalLoop=1;jettySize=auto;html=1;" edge="1" parent="1" source="kEy6Bz916FMSJvCaJo0o-4" target="kEy6Bz916FMSJvCaJo0o-6">
          <mxGeometry relative="1" as="geometry" />
        </mxCell>
        <mxCell id="kEy6Bz916FMSJvCaJo0o-4" value="N1, N2, Op, R" style="whiteSpace=wrap;html=1;fillColor=#dae8fc;strokeColor=#004C99;gradientColor=#89f0f0;" vertex="1" parent="1">
          <mxGeometry x="90" y="190" width="120" height="60" as="geometry" />
        </mxCell>
        <mxCell id="kEy6Bz916FMSJvCaJo0o-11" value="" style="edgeStyle=orthogonalEdgeStyle;rounded=0;orthogonalLoop=1;jettySize=auto;html=1;" edge="1" parent="1" source="kEy6Bz916FMSJvCaJo0o-6" target="kEy6Bz916FMSJvCaJo0o-10">
          <mxGeometry relative="1" as="geometry" />
        </mxCell>
        <mxCell id="kEy6Bz916FMSJvCaJo0o-6" value="Escribe un numero" style="shape=document;whiteSpace=wrap;html=1;boundedLbl=1;fillColor=#dae8fc;strokeColor=#004C99;gradientColor=#89f0f0;" vertex="1" parent="1">
          <mxGeometry x="90" y="300" width="120" height="80" as="geometry" />
        </mxCell>
        <mxCell id="kEy6Bz916FMSJvCaJo0o-13" value="" style="edgeStyle=orthogonalEdgeStyle;rounded=0;orthogonalLoop=1;jettySize=auto;html=1;" edge="1" parent="1" source="kEy6Bz916FMSJvCaJo0o-10" target="kEy6Bz916FMSJvCaJo0o-12">
          <mxGeometry relative="1" as="geometry" />
        </mxCell>
        <mxCell id="kEy6Bz916FMSJvCaJo0o-10" value="N1" style="shape=parallelogram;perimeter=parallelogramPerimeter;whiteSpace=wrap;html=1;fixedSize=1;fillColor=#dae8fc;strokeColor=#004C99;gradientColor=#89f0f0;" vertex="1" parent="1">
          <mxGeometry x="90" y="430" width="120" height="60" as="geometry" />
        </mxCell>
        <mxCell id="kEy6Bz916FMSJvCaJo0o-12" value="1" style="ellipse;whiteSpace=wrap;html=1;fillColor=#dae8fc;strokeColor=#004C99;gradientColor=#89f0f0;" vertex="1" parent="1">
          <mxGeometry x="110" y="560" width="80" height="80" as="geometry" />
        </mxCell>
        <mxCell id="kEy6Bz916FMSJvCaJo0o-16" value="" style="edgeStyle=orthogonalEdgeStyle;rounded=0;orthogonalLoop=1;jettySize=auto;html=1;" edge="1" parent="1" source="kEy6Bz916FMSJvCaJo0o-14" target="kEy6Bz916FMSJvCaJo0o-15">
          <mxGeometry relative="1" as="geometry" />
        </mxCell>
        <mxCell id="kEy6Bz916FMSJvCaJo0o-14" value="1" style="ellipse;whiteSpace=wrap;html=1;fillColor=#dae8fc;strokeColor=#004C99;gradientColor=#89f0f0;" vertex="1" parent="1">
          <mxGeometry x="374" y="70" width="80" height="80" as="geometry" />
        </mxCell>
        <mxCell id="kEy6Bz916FMSJvCaJo0o-18" value="" style="edgeStyle=orthogonalEdgeStyle;rounded=0;orthogonalLoop=1;jettySize=auto;html=1;" edge="1" parent="1" source="kEy6Bz916FMSJvCaJo0o-15" target="kEy6Bz916FMSJvCaJo0o-17">
          <mxGeometry relative="1" as="geometry" />
        </mxCell>
        <mxCell id="kEy6Bz916FMSJvCaJo0o-15" value="Escribe un numero" style="shape=document;whiteSpace=wrap;html=1;boundedLbl=1;fillColor=#dae8fc;strokeColor=#004C99;gradientColor=#89f0f0;" vertex="1" parent="1">
          <mxGeometry x="354" y="230" width="120" height="80" as="geometry" />
        </mxCell>
        <mxCell id="kEy6Bz916FMSJvCaJo0o-20" value="" style="edgeStyle=orthogonalEdgeStyle;rounded=0;orthogonalLoop=1;jettySize=auto;html=1;" edge="1" parent="1" source="kEy6Bz916FMSJvCaJo0o-17" target="kEy6Bz916FMSJvCaJo0o-19">
          <mxGeometry relative="1" as="geometry" />
        </mxCell>
        <mxCell id="kEy6Bz916FMSJvCaJo0o-17" value="N2" style="shape=parallelogram;perimeter=parallelogramPerimeter;whiteSpace=wrap;html=1;fixedSize=1;fillColor=#dae8fc;strokeColor=#004C99;gradientColor=#89f0f0;" vertex="1" parent="1">
          <mxGeometry x="354" y="370" width="120" height="60" as="geometry" />
        </mxCell>
        <mxCell id="kEy6Bz916FMSJvCaJo0o-22" value="" style="edgeStyle=orthogonalEdgeStyle;rounded=0;orthogonalLoop=1;jettySize=auto;html=1;" edge="1" parent="1" source="kEy6Bz916FMSJvCaJo0o-19" target="kEy6Bz916FMSJvCaJo0o-21">
          <mxGeometry relative="1" as="geometry" />
        </mxCell>
        <mxCell id="kEy6Bz916FMSJvCaJo0o-19" value="N1 &quot;*&quot; N2 &quot;=&quot;" style="shape=document;whiteSpace=wrap;html=1;boundedLbl=1;fillColor=#dae8fc;strokeColor=#004C99;gradientColor=#89f0f0;" vertex="1" parent="1">
          <mxGeometry x="354" y="500" width="120" height="80" as="geometry" />
        </mxCell>
        <mxCell id="kEy6Bz916FMSJvCaJo0o-24" value="" style="edgeStyle=orthogonalEdgeStyle;rounded=0;orthogonalLoop=1;jettySize=auto;html=1;" edge="1" parent="1" source="kEy6Bz916FMSJvCaJo0o-21" target="kEy6Bz916FMSJvCaJo0o-23">
          <mxGeometry relative="1" as="geometry" />
        </mxCell>
        <mxCell id="kEy6Bz916FMSJvCaJo0o-21" value="R" style="shape=parallelogram;perimeter=parallelogramPerimeter;whiteSpace=wrap;html=1;fixedSize=1;fillColor=#dae8fc;strokeColor=#004C99;gradientColor=#89f0f0;" vertex="1" parent="1">
          <mxGeometry x="354" y="670" width="120" height="60" as="geometry" />
        </mxCell>
        <mxCell id="kEy6Bz916FMSJvCaJo0o-23" value="2" style="ellipse;whiteSpace=wrap;html=1;fillColor=#dae8fc;strokeColor=#004C99;gradientColor=#89f0f0;" vertex="1" parent="1">
          <mxGeometry x="374" y="800" width="80" height="80" as="geometry" />
        </mxCell>
        <mxCell id="kEy6Bz916FMSJvCaJo0o-27" value="" style="edgeStyle=orthogonalEdgeStyle;rounded=0;orthogonalLoop=1;jettySize=auto;html=1;" edge="1" parent="1" source="kEy6Bz916FMSJvCaJo0o-25" target="kEy6Bz916FMSJvCaJo0o-26">
          <mxGeometry relative="1" as="geometry" />
        </mxCell>
        <mxCell id="kEy6Bz916FMSJvCaJo0o-25" value="2" style="ellipse;whiteSpace=wrap;html=1;fillColor=#dae8fc;strokeColor=#004C99;gradientColor=#89f0f0;" vertex="1" parent="1">
          <mxGeometry x="630" y="70" width="80" height="80" as="geometry" />
        </mxCell>
        <mxCell id="kEy6Bz916FMSJvCaJo0o-29" value="" style="edgeStyle=orthogonalEdgeStyle;rounded=0;orthogonalLoop=1;jettySize=auto;html=1;" edge="1" parent="1" source="kEy6Bz916FMSJvCaJo0o-26" target="kEy6Bz916FMSJvCaJo0o-28">
          <mxGeometry relative="1" as="geometry" />
        </mxCell>
        <mxCell id="kEy6Bz916FMSJvCaJo0o-26" value="&quot;El acierto es: &quot;, R = N1*N2" style="shape=document;whiteSpace=wrap;html=1;boundedLbl=1;fillColor=#dae8fc;strokeColor=#004C99;gradientColor=#89f0f0;" vertex="1" parent="1">
          <mxGeometry x="610" y="230" width="120" height="80" as="geometry" />
        </mxCell>
        <mxCell id="kEy6Bz916FMSJvCaJo0o-28" value="FIN" style="ellipse;whiteSpace=wrap;html=1;fillColor=#dae8fc;strokeColor=#004C99;gradientColor=#89f0f0;" vertex="1" parent="1">
          <mxGeometry x="610" y="390" width="120" height="80" as="geometry" />
        </mxCell>
      </root>
    </mxGraphModel>
  </diagram>
</mxfile>
